<?xml version="1.0" encoding="UTF-8" standalone="no"?>
<!DOCTYPE svg PUBLIC "-//W3C//DTD SVG 20010904//EN"
              "http://www.w3.org/TR/2001/REC-SVG-20010904/DTD/svg10.dtd">

<svg xmlns="http://www.w3.org/2000/svg"
     width="8.06667in" height="6.11111in"
     viewBox="0 0 726 550">
  <path id="anchor"
        fill="none" stroke="black" stroke-width="1"
        d="M 448.50,390.25
           C 448.50,390.25 448.75,414.75 448.75,414.75
             448.75,414.75 441.33,415.59 435.12,413.50
             428.01,411.11 421.12,405.00 421.12,405.00
             421.12,405.00 424.75,402.25 424.75,402.25
             424.75,402.25 415.00,398.75 415.00,398.75
             415.00,398.75 414.50,408.25 414.50,408.25
             414.50,408.25 418.62,406.25 418.62,406.50
             418.62,406.63 422.78,412.96 427.12,416.88
             431.00,420.37 435.75,422.00 435.75,422.00
             435.75,422.00 439.88,423.58 444.00,424.38
             447.59,425.07 451.25,425.00 451.25,425.00
             451.25,425.00 456.23,424.93 460.50,423.62
             465.21,422.19 469.25,419.50 469.25,419.50
             469.25,419.50 472.75,417.83 475.62,414.62
             479.18,410.66 483.12,403.75 483.12,403.75
             483.12,403.75 486.75,406.25 486.75,406.25
             486.75,406.25 485.50,397.00 485.50,397.00
             485.50,397.00 477.25,399.25 477.25,399.25
             477.25,399.25 480.00,401.75 480.00,401.75
             480.00,401.75 473.51,409.96 467.50,412.50
             462.32,414.69 455.75,414.75 455.75,414.75
             455.75,414.75 455.50,390.50 455.50,390.50
             455.50,390.50 465.75,390.62 465.75,390.62
             465.75,390.62 465.62,383.75 465.62,383.75
             465.62,383.75 457.00,383.75 457.00,383.75
             457.00,383.75 457.00,379.88 457.00,379.88
             457.00,379.88 459.58,378.79 461.25,377.25
             462.68,375.93 463.25,373.25 463.25,373.25
             463.25,373.25 463.86,371.62 463.38,369.62
             462.99,368.04 461.50,366.00 461.50,366.00
             461.50,366.00 459.46,364.87 456.50,364.50
             454.93,364.30 451.50,364.75 451.50,364.75
             451.50,364.75 449.61,365.02 448.25,366.38
             447.31,367.31 446.75,369.50 446.75,369.50
             446.75,369.50 445.88,371.12 445.88,372.62
             445.88,374.29 446.75,375.88 446.75,375.88
             446.75,375.88 449.88,379.50 449.88,379.50
             449.88,379.50 449.88,383.88 449.88,383.88
             449.88,383.88 440.12,383.50 440.12,383.50
             440.12,383.50 440.25,390.62 440.25,390.62
             440.25,390.62 449.50,390.50 449.50,390.50" />
  <path id="prow"
        fill="none" stroke="black" stroke-width="1"
        d="M 480.00,333.33
           C 480.00,333.33 539.33,316.00 539.33,316.00
             539.33,316.00 545.06,314.00 550.50,314.00
             555.36,314.00 560.50,314.50 560.00,316.00
             560.00,316.00 566.76,310.92 569.00,305.25
             571.72,298.37 570.00,290.67 570.00,290.67
             570.00,290.67 570.12,283.76 566.00,280.25
             561.17,276.14 552.00,275.33 552.00,275.33
             552.00,275.33 545.20,275.17 541.75,278.75
             537.06,283.63 535.33,292.67 535.33,292.67
             535.33,292.67 531.25,298.34 525.25,301.25
             519.59,304.00 512.00,304.00 512.00,304.00
             512.00,304.00 504.82,303.39 498.75,305.00
             493.56,306.37 489.33,310.00 489.33,310.00
             489.33,310.00 479.33,334.67 479.33,334.67" />
  <path id="large-sail"
        fill="none" stroke="black" stroke-width="1"
        d="M 340.00,60.67
           C 340.00,60.67 359.69,113.52 363.33,168.00
             367.02,223.18 354.67,280.00 354.67,280.00
             354.67,280.00 397.67,260.62 443.33,257.33
             485.53,254.30 530.67,267.33 530.67,267.33
             530.67,267.33 503.87,193.25 456.00,140.67
             409.21,89.27 341.33,59.33 341.33,59.33" />
  <path id="small-sail"
        fill="none" stroke="black" stroke-width="1"
        d="M 317.00,96.00
           C 317.00,96.00 310.90,144.64 310.00,192.50
             309.15,238.08 313.50,283.00 313.50,283.00
             313.50,283.00 283.35,279.76 250.50,280.00
             216.13,280.26 179.00,284.00 179.00,284.00
             179.00,284.00 229.58,248.48 264.00,201.50
             298.82,153.98 317.50,95.00 317.50,95.00" />
  <path id="flag"
        fill="none" stroke="black" stroke-width="1"
        d="M 330.00,23.33
           C 330.00,23.33 330.00,44.00 330.00,44.00
             330.00,44.00 322.01,47.72 312.67,48.67
             302.39,49.71 291.62,46.12 291.62,46.12
             291.62,46.12 283.66,39.98 276.00,38.00
             265.98,35.40 254.67,38.67 254.67,38.67
             254.67,38.67 258.25,34.59 264.88,32.75
             270.07,31.31 277.00,30.88 277.00,30.88
             277.00,30.88 272.52,28.42 267.12,27.62
             261.46,26.79 254.88,27.62 254.88,27.62
             254.88,27.62 264.01,24.35 270.38,21.62
             275.55,19.41 286.12,21.62 286.12,21.62
             286.12,21.62 294.75,22.75 298.62,25.38
             300.80,25.94 303.43,27.11 305.88,27.25
             309.02,27.43 311.75,26.50 311.75,26.50
             311.75,26.50 316.16,24.86 320.88,24.12
             326.24,23.29 332.00,23.33 332.00,23.33" />
  <path id="mast"
        fill="none" stroke="black" stroke-width="1"
        d="M 325.33,348.67
           C 325.33,348.67 340.67,348.00 340.67,348.00
             340.67,348.00 332.00,46.67 332.00,46.67
             332.00,46.67 322.00,47.33 322.00,47.33
             322.00,47.33 327.33,349.33 327.33,349.33" />
  <path id="rudder"
        fill="none" stroke="black" stroke-width="1"
        d="M 122.67,369.33
           C 122.67,369.33 145.33,418.00 145.33,418.00
             145.33,418.00 147.33,458.00 147.33,458.00
             147.33,458.00 119.33,456.67 119.33,456.67
             119.33,456.67 122.00,368.00 122.00,368.00" />
  <path id="hull"
        fill="none" stroke="black" stroke-width="1"
        d="M 155.00,422.00
           C 164.45,428.42 198.32,431.48 236.67,434.00
             290.34,437.53 355.68,437.60 400.67,423.33
             493.63,393.85 518.00,326.67 518.00,326.67
             518.00,326.67 437.18,345.56 358.00,347.33
             273.37,349.23 190.00,334.00 190.00,334.00
             190.00,334.00 189.33,302.67 189.33,302.67
             189.33,302.67 114.67,298.67 114.67,298.67
             114.67,298.67 117.33,344.00 117.33,344.00
             117.33,344.00 156.67,422.67 156.67,422.67" />
</svg>
