<?xml version="1.0" encoding="UTF-8" standalone="no"?>
<!DOCTYPE svg PUBLIC "-//W3C//DTD SVG 20010904//EN"
              "http://www.w3.org/TR/2001/REC-SVG-20010904/DTD/svg10.dtd">

<svg xmlns="http://www.w3.org/2000/svg"
     width="8.06667in" height="6.11111in"
     viewBox="0 0 726 550">
  <path id="anchor"
        fill="none" stroke="black" stroke-width="1"
        d="M 546.50,430.25
           C 546.50,430.25 546.75,454.75 546.75,454.75
             546.75,454.75 539.33,455.59 533.12,453.50
             526.01,451.11 519.12,445.00 519.12,445.00
             519.12,445.00 522.75,442.25 522.75,442.25
             522.75,442.25 513.00,438.75 513.00,438.75
             513.00,438.75 512.50,448.25 512.50,448.25
             512.50,448.25 516.62,446.25 516.62,446.50
             516.62,446.63 520.78,452.96 525.12,456.88
             529.00,460.37 533.75,462.00 533.75,462.00
             533.75,462.00 537.88,463.58 542.00,464.38
             545.59,465.07 549.25,465.00 549.25,465.00
             549.25,465.00 554.23,464.93 558.50,463.62
             563.21,462.19 567.25,459.50 567.25,459.50
             567.25,459.50 570.75,457.83 573.62,454.62
             577.18,450.66 581.12,443.75 581.12,443.75
             581.12,443.75 584.75,446.25 584.75,446.25
             584.75,446.25 583.50,437.00 583.50,437.00
             583.50,437.00 575.25,439.25 575.25,439.25
             575.25,439.25 578.00,441.75 578.00,441.75
             578.00,441.75 571.51,449.96 565.50,452.50
             560.32,454.69 553.75,454.75 553.75,454.75
             553.75,454.75 553.50,430.50 553.50,430.50
             553.50,430.50 563.75,430.62 563.75,430.62
             563.75,430.62 563.62,423.75 563.62,423.75
             563.62,423.75 555.00,423.75 555.00,423.75
             555.00,423.75 555.00,419.88 555.00,419.88
             555.00,419.88 557.58,418.79 559.25,417.25
             560.68,415.93 561.25,413.25 561.25,413.25
             561.25,413.25 561.86,411.62 561.38,409.62
             560.99,408.04 559.50,406.00 559.50,406.00
             559.50,406.00 557.46,404.87 554.50,404.50
             552.93,404.30 549.50,404.75 549.50,404.75
             549.50,404.75 547.61,405.02 546.25,406.38
             545.31,407.31 544.75,409.50 544.75,409.50
             544.75,409.50 543.88,411.12 543.88,412.62
             543.88,414.29 544.75,415.88 544.75,415.88
             544.75,415.88 547.88,419.50 547.88,419.50
             547.88,419.50 547.88,423.88 547.88,423.88
             547.88,423.88 538.12,423.50 538.12,423.50
             538.12,423.50 538.25,430.62 538.25,430.62
             538.25,430.62 547.50,430.50 547.50,430.50M 555.64,315.64
           C 555.64,315.64 554.73,404.36 554.73,404.36" />
  <path id="prow"
        fill="none" stroke="black" stroke-width="1"
        d="M 480.00,333.33
           C 480.00,333.33 539.33,316.00 539.33,316.00
             539.33,316.00 545.06,314.00 550.50,314.00
             555.36,314.00 560.50,314.50 560.00,316.00
             560.00,316.00 566.76,310.92 569.00,305.25
             571.72,298.37 570.00,290.67 570.00,290.67
             570.00,290.67 570.12,283.76 566.00,280.25
             561.17,276.14 552.00,275.33 552.00,275.33
             552.00,275.33 545.20,275.17 541.75,278.75
             537.06,283.63 535.33,292.67 535.33,292.67
             535.33,292.67 531.25,298.34 525.25,301.25
             519.59,304.00 512.00,304.00 512.00,304.00
             512.00,304.00 504.82,303.39 498.75,305.00
             493.56,306.37 489.33,310.00 489.33,310.00
             489.33,310.00 479.33,334.67 479.33,334.67" />
  <path id="large-sail"
        fill="none" stroke="black" stroke-width="1"
        d="M 340.00,60.67
           C 340.00,60.67 359.69,113.52 363.33,168.00
             367.02,223.18 354.67,280.00 354.67,280.00
             354.67,280.00 397.67,260.62 443.33,257.33
             485.53,254.30 530.67,267.33 530.67,267.33
             530.67,267.33 503.87,193.25 456.00,140.67
             409.21,89.27 341.33,59.33 341.33,59.33M 317.00,96.00
           C 317.00,96.00 310.90,144.64 310.00,192.50
             309.15,238.08 313.50,283.00 313.50,283.00
             313.50,283.00 283.35,279.76 250.50,280.00
             216.13,280.26 179.00,284.00 179.00,284.00
             179.00,284.00 229.58,248.48 264.00,201.50
             298.82,153.98 317.50,95.00 317.50,95.00" />
  <path id="flag"
        fill="none" stroke="black" stroke-width="1"
        d="M 329.45,52.73
           C 329.45,52.73 328.91,22.18 328.91,22.18
             328.91,22.18 286.81,14.77 240.00,15.33
             184.73,16.00 123.33,24.67 123.33,24.67
             123.33,24.67 178.00,33.67 178.00,33.67
             178.00,33.67 154.80,35.83 133.00,40.67
             113.61,44.97 95.33,52.00 95.33,52.00
             95.33,52.00 122.75,49.11 146.67,49.67
             164.52,50.09 180.67,54.00 180.67,54.00
             180.67,54.00 160.51,55.61 146.67,61.67
             133.89,67.26 127.33,77.33 127.33,77.33
             127.33,77.33 141.39,71.12 163.33,68.00
             183.63,65.12 210.81,65.35 236.33,64.67
             284.14,63.39 329.73,71.91 329.73,71.91
             329.73,71.91 329.55,52.73 329.55,52.73M 238.55,21.27
           C 238.55,21.27 257.82,41.27 257.82,41.27
             257.82,41.27 237.45,59.45 237.45,59.45
             237.45,59.45 217.64,40.00 217.64,40.00
             217.64,40.00 238.73,20.91 238.73,20.91" />
  <path id="mast"
        fill="none" stroke="black" stroke-width="1"
        d="M 328.50,346.50
           C 328.50,346.50 332.25,346.50 332.25,346.50
             332.25,346.50 327.38,46.62 327.38,46.62
             327.38,46.62 324.88,46.75 324.88,46.75
             324.88,46.75 328.38,346.25 328.38,346.25" />
  <path id="rudder"
        fill="none" stroke="black" stroke-width="1"
        d="M 122.67,369.33
           C 122.67,369.33 145.33,418.00 145.33,418.00
             145.33,418.00 147.33,458.00 147.33,458.00
             147.33,458.00 119.33,456.67 119.33,456.67
             119.33,456.67 122.00,368.00 122.00,368.00" />
  <path id="hull"
        fill="none" stroke="black" stroke-width="1"
        d="M 519.00,328.00
           C 519.00,328.00 412.93,351.47 309.00,349.00
             202.95,346.47 99.00,318.00 99.00,318.00
             99.00,318.00 99.50,321.00 99.50,321.00
             99.50,321.00 206.33,350.12 311.00,352.50
             415.08,354.87 517.57,331.91 517.57,331.91
             517.57,331.91 519.17,328.04 519.17,328.04" />
  <path id="keel"
        fill="none" stroke="black" stroke-width="1"
        d="M 155.00,422.00
           C 164.45,428.42 198.32,431.48 236.67,434.00
             290.34,437.53 355.68,437.60 400.67,423.33
             493.63,393.85 518.00,326.67 518.00,326.67
             518.00,326.67 498.92,360.07 463.33,388.00
             433.65,411.29 390.68,429.86 354.67,430.67
             314.08,431.57 281.77,437.11 230.00,430.00
             213.22,427.70 177.36,433.58 159.50,420.12
             152.98,415.21 149.79,406.11 146.00,399.38
             140.12,388.91 135.29,377.86 129.25,367.00
             118.32,347.36 107.84,326.08 103.38,318.50
             101.67,315.62 103.00,318.69 103.00,318.69
             103.00,318.69 156.67,422.67 156.67,422.67" />
</svg>
